<svg width="500" height="500" viewBox="0 0 500 500" fill="none" xmlns="http://www.w3.org/2000/svg">
<path d="M343.301 262.997H301.009C300.832 262.997 300.669 262.899 300.587 262.742C300.504 262.585 300.515 262.395 300.614 262.248C300.654 262.191 304.481 256.48 304.805 247.515C302.571 247.789 300.308 247.928 298.068 247.928C292.752 247.928 287.493 247.166 282.434 245.66C273.906 255.856 264.744 262.83 264.652 262.9C264.569 262.963 264.467 262.997 264.363 262.997H213.203C213.009 262.997 212.835 262.88 212.761 262.701C212.687 262.522 212.728 262.317 212.865 262.18C219.506 255.553 222.991 245.973 223.227 233.698C220.106 235.216 216.641 236.014 213.156 236.014C205.827 236.014 198.899 232.493 194.561 226.577C190.856 227.335 187.059 227.719 183.27 227.719C152.34 227.719 127.176 202.555 127.176 171.624C127.176 156.701 132.97 142.656 143.493 132.075C153.924 121.585 167.785 115.721 182.559 115.538C190.237 86.9406 216.235 67.0007 245.91 67.0007C257.342 67.0007 268.598 69.9865 278.46 75.6352C287.924 81.056 295.955 88.8153 301.703 98.09C305.527 97.1621 309.469 96.6918 313.426 96.6918C333.944 96.6918 352.493 109.514 359.758 128.657C367.022 124.881 375.193 122.887 383.428 122.887C411.754 122.887 434.799 145.932 434.799 174.258C434.799 202.583 411.754 225.628 383.428 225.628C379.629 225.628 375.84 225.21 372.156 224.386C369.755 237.75 362.814 255.093 343.481 262.961C343.424 262.985 343.362 262.997 343.301 262.997ZM301.865 262.04H343.207C362.306 254.222 369.028 236.895 371.301 223.726C371.323 223.596 371.398 223.481 371.508 223.408C371.618 223.335 371.752 223.313 371.881 223.342C375.648 224.224 379.533 224.672 383.428 224.672C411.227 224.672 433.842 202.056 433.842 174.258C433.842 146.459 411.227 123.844 383.428 123.844C375.167 123.844 366.971 125.888 359.725 129.755C359.603 129.82 359.459 129.83 359.33 129.78C359.2 129.731 359.099 129.628 359.051 129.498C352.062 110.448 333.726 97.6482 313.426 97.6482C309.43 97.6482 305.449 98.1372 301.595 99.1016C301.39 99.1521 301.18 99.0652 301.071 98.8877C289.211 79.52 268.589 67.9572 245.91 67.9572C216.547 67.9572 190.839 87.7682 183.391 116.134C183.336 116.343 183.147 116.49 182.931 116.491C152.715 116.674 128.132 141.406 128.132 171.624C128.132 202.028 152.867 226.762 183.27 226.762C187.097 226.762 190.932 226.364 194.669 225.578C194.853 225.538 195.046 225.614 195.157 225.769C199.302 231.585 206.031 235.058 213.156 235.058C216.753 235.058 220.327 234.171 223.492 232.491C223.641 232.413 223.82 232.417 223.964 232.505C224.108 232.592 224.196 232.749 224.194 232.918C224.096 245.334 220.778 255.125 214.33 262.04H264.201C265.338 261.16 273.931 254.393 281.901 244.806C282.024 244.658 282.224 244.598 282.408 244.654C287.471 246.192 292.739 246.972 298.068 246.972C300.452 246.972 302.863 246.812 305.236 246.496C305.373 246.476 305.513 246.52 305.617 246.613C305.722 246.706 305.78 246.839 305.777 246.979C305.626 254.742 302.963 260.137 301.865 262.04Z" fill="white"/>
<path d="M268.184 275.127L296.277 424.01H180.894L208.986 275.127H268.184Z" stroke="white" stroke-width="1.5"/>
<path d="M270.391 274.918H206.78C203.803 274.918 201.381 272.496 201.381 269.519V263.643C201.381 260.666 203.803 258.244 206.78 258.244H270.391C273.368 258.244 275.79 260.666 275.79 263.643V269.519C275.79 272.496 273.368 274.918 270.391 274.918ZM206.78 259.2C204.33 259.2 202.337 261.193 202.337 263.643V269.519C202.337 271.968 204.33 273.962 206.78 273.962H270.391C272.84 273.962 274.834 271.968 274.834 269.519V263.643C274.834 261.193 272.84 259.2 270.391 259.2H206.78Z" fill="white"/>
<path d="M266.508 297.353H258.996C258.731 297.353 258.518 297.139 258.518 296.875C258.518 296.611 258.731 296.397 258.996 296.397H266.508C266.772 296.397 266.986 296.611 266.986 296.875C266.986 297.139 266.772 297.353 266.508 297.353Z" fill="white"/>
<path d="M357.773 275.127L385.867 424.01H270.483L298.576 275.127H357.773Z" fill="white" stroke="white" stroke-width="1.5"/>
<path d="M359.981 274.918H296.37C293.393 274.918 290.971 272.496 290.971 269.519V263.643C290.971 260.666 293.393 258.244 296.37 258.244H359.981C362.958 258.244 365.38 260.666 365.38 263.643V269.519C365.38 272.496 362.958 274.918 359.981 274.918ZM296.37 259.2C293.92 259.2 291.927 261.193 291.927 263.643V269.519C291.927 271.968 293.92 273.962 296.37 273.962H359.981C362.43 273.962 364.423 271.968 364.423 269.519V263.643C364.423 261.193 362.431 259.2 359.981 259.2H296.37Z" fill="white"/>
<path d="M356.098 297.353H348.586C348.321 297.353 348.107 297.139 348.107 296.875C348.107 296.611 348.321 296.397 348.586 296.397H356.098C356.362 296.397 356.576 296.611 356.576 296.875C356.576 297.139 356.362 297.353 356.098 297.353Z" fill="white"/>
<path d="M405.395 425.238H216.654C216.39 425.238 216.176 425.024 216.176 424.76V357.089C216.176 356.825 216.39 356.611 216.654 356.611H405.395C405.659 356.611 405.873 356.825 405.873 357.089V424.76C405.873 425.024 405.659 425.238 405.395 425.238ZM217.132 424.281H404.917V357.567H217.132V424.281Z" fill="white"/>
<path d="M251.856 391.942H235.728C235.464 391.942 235.25 391.728 235.25 391.464V375.336C235.25 375.072 235.464 374.858 235.728 374.858H251.856C252.12 374.858 252.334 375.072 252.334 375.336V391.464C252.334 391.728 252.12 391.942 251.856 391.942ZM236.206 390.986H251.378V375.814H236.206V390.986Z" fill="white"/>
<path d="M278.749 391.942H262.621C262.356 391.942 262.143 391.728 262.143 391.464V375.336C262.143 375.072 262.356 374.858 262.621 374.858H278.749C279.013 374.858 279.227 375.072 279.227 375.336V391.464C279.227 391.728 279.013 391.942 278.749 391.942ZM263.099 390.986H278.271V375.814H263.099V390.986Z" fill="white"/>
<path d="M305.641 391.942H289.513C289.249 391.942 289.035 391.728 289.035 391.464V375.336C289.035 375.072 289.249 374.858 289.513 374.858H305.641C305.906 374.858 306.12 375.072 306.12 375.336V391.464C306.12 391.728 305.906 391.942 305.641 391.942ZM289.992 390.986H305.163V375.814H289.992V390.986Z" fill="white"/>
<path d="M332.536 391.942H316.408C316.144 391.942 315.93 391.728 315.93 391.464V375.336C315.93 375.072 316.144 374.858 316.408 374.858H332.536C332.8 374.858 333.014 375.072 333.014 375.336V391.464C333.014 391.728 332.8 391.942 332.536 391.942ZM316.886 390.986H332.058V375.814H316.886V390.986Z" fill="white"/>
<path d="M359.429 391.942H343.301C343.036 391.942 342.822 391.728 342.822 391.464V375.336C342.822 375.072 343.036 374.858 343.301 374.858H359.429C359.693 374.858 359.907 375.072 359.907 375.336V391.464C359.907 391.728 359.693 391.942 359.429 391.942ZM343.779 390.986H358.951V375.814H343.779V390.986Z" fill="white"/>
<path d="M386.322 391.942H370.193C369.929 391.942 369.715 391.728 369.715 391.464V375.336C369.715 375.072 369.929 374.858 370.193 374.858H386.322C386.586 374.858 386.8 375.072 386.8 375.336V391.464C386.8 391.728 386.586 391.942 386.322 391.942ZM370.671 390.986H385.843V375.814H370.671V390.986Z" fill="white"/>
<path d="M217.441 112.515C217.323 112.515 217.207 112.471 217.116 112.388C216.977 112.259 216.927 112.061 216.989 111.881L222.048 97.1671C222.113 96.9775 222.29 96.8486 222.49 96.8444C222.709 96.8285 222.873 96.9626 222.946 97.1494L227.114 107.863C227.207 108.103 227.094 108.373 226.858 108.475L217.632 112.475C217.57 112.502 217.505 112.515 217.441 112.515ZM222.528 98.713L218.246 111.167L226.055 107.781L222.528 98.713Z" fill="white"/>
<path d="M198.241 117.157C198.081 117.157 197.925 117.077 197.834 116.931L167.357 67.7302C167.218 67.5056 167.287 67.2109 167.512 67.0717C167.736 66.9325 168.031 67.0021 168.17 67.2268L198.648 116.428C198.787 116.652 198.717 116.947 198.493 117.086C198.414 117.135 198.327 117.157 198.241 117.157Z" fill="white"/>
<path d="M189.211 123.586C189.119 123.586 189.026 123.559 188.944 123.504L154.369 100.221C154.15 100.074 154.092 99.7769 154.24 99.5579C154.387 99.3388 154.684 99.2795 154.904 99.4285L189.478 122.711C189.697 122.858 189.755 123.156 189.608 123.375C189.515 123.512 189.364 123.586 189.211 123.586Z" fill="white"/>
<path d="M181.392 133.266C181.121 133.266 180.857 133.233 180.601 133.167C179.69 132.932 179.232 132.367 178.827 131.869C178.501 131.467 178.193 131.088 177.644 130.853C176.595 130.406 175.648 130.905 174.552 131.482C173.494 132.039 172.295 132.668 170.915 132.34C169.24 131.94 168.603 130.494 167.987 129.094C167.43 127.829 166.903 126.633 165.653 126.178C164.226 125.659 162.835 126.471 161.361 127.33C159.756 128.267 158.096 129.236 156.247 128.538C154.699 127.954 154.03 126.556 153.44 125.322C152.901 124.197 152.437 123.225 151.448 122.964C150.066 122.598 148.144 123.774 145.892 126.363C145.718 126.563 145.417 126.583 145.217 126.41C145.018 126.237 144.997 125.935 145.17 125.735C147.75 122.77 149.883 121.559 151.692 122.039C153.109 122.413 153.715 123.682 154.302 124.909C154.865 126.084 155.396 127.194 156.584 127.643C158.006 128.179 159.402 127.365 160.879 126.504C162.479 125.571 164.133 124.608 165.979 125.279C167.614 125.874 168.277 127.38 168.863 128.709C169.432 130.003 169.924 131.12 171.137 131.41C172.169 131.657 173.11 131.161 174.106 130.636C175.252 130.033 176.552 129.347 178.019 129.973C178.786 130.301 179.203 130.814 179.57 131.266C179.941 131.724 180.234 132.085 180.84 132.241C181.803 132.488 182.97 132.065 184.313 130.982C184.519 130.815 184.82 130.848 184.986 131.054C185.152 131.259 185.12 131.56 184.914 131.726C183.644 132.75 182.463 133.266 181.392 133.266Z" fill="white"/>
<path d="M293.192 176.759C293.086 176.759 292.981 176.723 292.897 176.656C292.797 176.577 292.732 176.462 292.718 176.336C291.669 167.419 288.239 158.918 282.796 151.752C282.637 151.542 282.678 151.242 282.888 151.082L293.533 142.982C293.634 142.905 293.762 142.872 293.887 142.889C294.014 142.906 294.127 142.972 294.204 143.073C301.185 152.266 305.592 163.171 306.948 174.608C306.979 174.869 306.792 175.107 306.531 175.139C302.585 175.623 298.117 176.167 293.25 176.755C293.231 176.758 293.212 176.759 293.192 176.759ZM283.845 151.555C289.128 158.648 292.496 166.994 293.609 175.748C298.099 175.205 302.242 174.701 305.94 174.248C304.56 163.31 300.346 152.883 293.73 144.034L283.845 151.555Z" fill="white"/>
<path d="M265.16 122.11C258.92 119.789 252.547 118.504 246.231 118.166L245.521 131.527C250.519 131.794 255.561 132.811 260.498 134.647C269.848 138.123 277.56 144.067 283.177 151.463L293.822 143.363C286.724 134.015 276.976 126.504 265.16 122.11Z" fill="white"/>
<path d="M283.176 151.941C283.155 151.941 283.134 151.94 283.112 151.937C282.986 151.92 282.872 151.853 282.795 151.752C277.047 144.182 269.279 138.422 260.331 135.095C255.542 133.314 250.551 132.274 245.496 132.004C245.232 131.99 245.03 131.765 245.044 131.501L245.754 118.141C245.76 118.014 245.817 117.895 245.911 117.81C246.006 117.726 246.129 117.682 246.257 117.689C252.756 118.036 259.172 119.373 265.327 121.662C276.828 125.939 286.814 133.342 294.203 143.074C294.363 143.284 294.322 143.584 294.112 143.743L283.466 151.843C283.382 151.907 283.281 151.941 283.176 151.941ZM246.024 131.077C251.013 131.391 255.936 132.44 260.665 134.199C269.633 137.533 277.438 143.266 283.266 150.794L293.151 143.272C285.901 133.873 276.174 126.716 264.993 122.558C259.08 120.359 252.922 119.052 246.683 118.671L246.024 131.077Z" fill="white"/>
<path d="M242.747 246.723C241.631 246.723 240.517 246.694 239.403 246.634C232.903 246.286 226.487 244.95 220.333 242.662C208.832 238.385 198.847 230.98 191.457 221.249C184.519 212.113 180.121 201.274 178.738 189.905C177.486 179.615 178.695 169.441 182.33 159.665C187.222 146.509 196.023 135.544 207.782 127.954C219.151 120.616 232.817 116.972 246.257 117.689C246.52 117.703 246.723 117.928 246.709 118.191L245.999 131.552C245.992 131.679 245.935 131.797 245.841 131.882C245.747 131.967 245.621 132.009 245.496 132.004C223.449 130.825 203.465 143.949 195.764 164.66C192.931 172.277 191.992 180.203 192.974 188.22C194.054 197.052 197.475 205.473 202.864 212.571C208.613 220.141 216.381 225.901 225.328 229.228C230.118 231.009 235.11 232.049 240.164 232.318C262.202 233.496 282.195 220.374 289.896 199.663C292.701 192.121 293.65 184.273 292.717 176.336C292.686 176.074 292.873 175.837 293.135 175.805C298.001 175.217 302.469 174.674 306.414 174.19C306.543 174.175 306.668 174.209 306.767 174.288C306.867 174.367 306.932 174.482 306.947 174.608C308.16 184.832 306.943 194.943 303.33 204.658C298.438 217.814 289.637 228.779 277.878 236.369C267.451 243.098 255.092 246.723 242.747 246.723ZM242.736 118.551C216.209 118.551 192.574 134.861 183.227 159.998C179.645 169.629 178.454 179.653 179.687 189.79C181.05 200.99 185.384 211.669 192.219 220.671C199.499 230.257 209.336 237.552 220.666 241.765C226.73 244.02 233.051 245.336 239.454 245.679C267.382 247.179 292.681 230.552 302.433 204.325C305.936 194.904 307.154 185.107 306.052 175.198C302.354 175.651 298.21 176.155 293.721 176.698C294.579 184.625 293.595 192.461 290.793 199.997C286.915 210.426 279.937 219.119 270.615 225.136C261.602 230.953 250.768 233.84 240.113 233.274C234.963 232.999 229.876 231.939 224.995 230.125C215.878 226.734 207.962 220.864 202.103 213.149C196.611 205.917 193.125 197.336 192.024 188.336C191.024 180.166 191.981 172.088 194.867 164.327C198.745 153.897 205.723 145.204 215.045 139.187C223.923 133.457 234.568 130.565 245.069 131.026L245.728 118.62C244.727 118.574 243.73 118.551 242.736 118.551Z" fill="white"/>
<path d="M274.175 210.39H211.487C208.627 210.39 206.057 208.918 204.61 206.451C203.164 203.985 203.134 201.023 204.53 198.527L235.874 142.501C237.303 139.947 239.904 138.422 242.831 138.422C245.757 138.422 248.358 139.947 249.787 142.501L281.132 198.527C282.528 201.023 282.497 203.985 281.051 206.451C279.605 208.918 277.034 210.39 274.175 210.39ZM242.831 139.379C240.255 139.379 237.966 140.721 236.709 142.968L205.365 198.994C204.136 201.19 204.163 203.797 205.435 205.968C206.708 208.138 208.97 209.434 211.487 209.434H274.175C276.691 209.434 278.953 208.138 280.226 205.968C281.499 203.797 281.525 201.19 280.297 198.994L248.953 142.968C247.695 140.721 245.406 139.379 242.831 139.379Z" fill="white"/>
<path d="M220.427 186.936C220.348 186.936 220.268 186.916 220.194 186.875C219.964 186.746 219.881 186.455 220.01 186.224L240.31 149.938C240.828 149.013 241.771 148.46 242.831 148.46C243.892 148.46 244.835 149.013 245.353 149.938L247.527 153.824C247.656 154.054 247.573 154.346 247.343 154.475C247.113 154.604 246.821 154.521 246.692 154.291L244.518 150.405C244.172 149.786 243.541 149.416 242.831 149.416C242.122 149.416 241.491 149.786 241.145 150.405L220.845 186.691C220.757 186.847 220.595 186.936 220.427 186.936Z" fill="white"/>
<path d="M254.74 168.176C254.572 168.176 254.409 168.088 254.322 167.931L250.079 160.347C249.949 160.116 250.032 159.825 250.262 159.696C250.493 159.567 250.785 159.649 250.913 159.88L255.157 167.464C255.286 167.695 255.203 167.986 254.973 168.115C254.899 168.156 254.819 168.176 254.74 168.176Z" fill="white"/>
<path d="M270.043 202.88H256.269C256.005 202.88 255.791 202.666 255.791 202.401C255.791 202.137 256.005 201.923 256.269 201.923H270.043C270.736 201.923 271.36 201.566 271.711 200.968C272.061 200.37 272.068 199.652 271.73 199.047C271.601 198.816 271.683 198.525 271.914 198.396C272.144 198.268 272.436 198.35 272.565 198.58C273.071 199.485 273.06 200.558 272.535 201.452C272.011 202.346 271.08 202.88 270.043 202.88Z" fill="white"/>
<path d="M250.496 202.88H215.618C214.581 202.88 213.65 202.346 213.125 201.452C212.601 200.558 212.591 199.484 213.097 198.58L216.745 192.058C216.874 191.828 217.164 191.745 217.396 191.874C217.627 192.003 217.709 192.294 217.58 192.525L213.931 199.047C213.593 199.652 213.6 200.37 213.951 200.968C214.301 201.566 214.924 201.923 215.618 201.923H250.496C250.76 201.923 250.974 202.137 250.974 202.401C250.974 202.666 250.76 202.88 250.496 202.88Z" fill="white"/>
<path d="M242.83 199.181C245.08 199.181 246.904 197.357 246.904 195.107C246.904 192.857 245.08 191.033 242.83 191.033C240.58 191.033 238.756 192.857 238.756 195.107C238.756 197.357 240.58 199.181 242.83 199.181Z" fill="white"/>
<path d="M243.529 160.113H242.131C240.172 160.113 238.604 161.737 238.672 163.695L239.371 183.723C239.436 185.586 240.965 187.063 242.83 187.063C244.695 187.063 246.224 185.586 246.289 183.723L246.988 163.695C247.056 161.737 245.488 160.113 243.529 160.113Z" fill="white"/>
<path d="M106.672 387.237C106.672 387.237 104.931 390.844 100.724 394.154C99.0742 395.452 100.559 399.488 100.559 399.488L106.122 403.129C106.084 401.296 106.46 399.475 107.24 397.816C108.051 396.092 111.025 394.077 112.392 392.584L106.672 387.237Z" fill="white"/>
<path d="M98.1022 426.19C97.9631 426.19 97.8229 426.181 97.6824 426.16C96.7338 426.02 95.9319 425.417 95.537 424.547C92.1672 417.123 91.2187 405.887 90.9674 401.4C90.903 400.248 91.3235 399.12 92.1212 398.304C94.4825 395.891 96.7805 394.468 98.2923 393.7C98.8037 393.44 99.3835 393.403 99.9248 393.596C100.461 393.787 100.901 394.195 101.131 394.716L102.436 397.665L102.691 397.302C103.037 396.841 103.564 396.547 104.138 396.494C104.71 396.435 105.285 396.635 105.709 397.026L107.28 398.472C107.624 398.789 107.8 399.256 107.749 399.719C107.436 402.576 105.719 417.072 102.615 421.959C101.778 423.276 100.979 424.372 100.24 425.218C99.6934 425.843 98.9163 426.19 98.1022 426.19ZM91.9225 401.347C92.1707 405.78 93.1048 416.875 96.4081 424.152C96.6717 424.733 97.1871 425.12 97.822 425.213C98.4618 425.312 99.0954 425.074 99.5199 424.589C100.227 423.779 100.997 422.722 101.807 421.446C104.799 416.738 106.49 402.434 106.798 399.615C106.816 399.45 106.756 399.289 106.632 399.176L105.061 397.729C104.832 397.518 104.538 397.419 104.226 397.447C103.916 397.475 103.643 397.628 103.456 397.876L103.185 398.237C102.982 398.509 102.657 398.651 102.32 398.61C101.982 398.571 101.698 398.362 101.561 398.051L100.256 395.103C100.13 394.817 99.8982 394.602 99.604 394.497C99.3125 394.393 99.0006 394.413 98.7257 394.553C97.2779 395.288 95.0754 396.653 92.8049 398.973C92.1945 399.597 91.873 400.462 91.9225 401.347Z" fill="white"/>
<path d="M98.1482 422.946C97.948 422.946 97.7617 422.82 97.6947 422.62C94.931 414.364 93.9386 404.618 93.6401 400.811C93.6196 400.547 93.8162 400.317 94.0796 400.296C94.3433 400.273 94.573 400.472 94.5938 400.736C94.8895 404.508 95.8716 414.161 98.6016 422.316C98.6855 422.567 98.5505 422.838 98.2999 422.922C98.2497 422.938 98.1984 422.946 98.1482 422.946Z" fill="white"/>
<path d="M103.284 413.501C103.263 413.501 103.243 413.5 103.223 413.498L100.019 413.09C99.7574 413.056 99.5722 412.817 99.6054 412.555C99.6388 412.293 99.8812 412.109 100.14 412.141L103.344 412.548C103.606 412.582 103.791 412.821 103.758 413.083C103.727 413.325 103.521 413.501 103.284 413.501Z" fill="white"/>
<path d="M103.768 408.562C103.748 408.562 103.728 408.561 103.708 408.558L99.4135 408.025C99.1513 407.992 98.9652 407.754 98.9979 407.492C99.0301 407.229 99.2739 407.038 99.5312 407.076L103.826 407.609C104.088 407.642 104.274 407.881 104.241 408.143C104.212 408.385 104.005 408.562 103.768 408.562Z" fill="white"/>
<path d="M160.078 411.291L160.147 414.24C160.201 416.582 159.687 418.902 158.649 421.002L158.547 421.208L172.897 422.643C172.897 422.643 166.698 418.251 168.216 412.413C168.97 409.513 160.078 411.291 160.078 411.291Z" fill="white"/>
<path d="M186.247 433H157.071C155.826 433 154.783 432.027 154.697 430.785C154.545 428.591 154.585 424.393 156.56 420.932C157.178 419.849 158.403 419.27 159.605 419.488L167.777 420.975C168.448 421.084 169.134 420.823 169.601 420.278L170.34 419.296C171.015 418.399 172.198 418.096 173.218 418.559C176.833 420.198 185.54 424.54 188.32 429.447C188.742 430.192 188.736 431.078 188.305 431.817C187.874 432.558 187.104 433 186.247 433ZM159.097 420.398C158.407 420.398 157.749 420.777 157.39 421.406C155.54 424.649 155.506 428.633 155.651 430.719C155.703 431.462 156.326 432.044 157.071 432.044H186.247C186.76 432.044 187.22 431.779 187.479 431.336C187.736 430.893 187.74 430.364 187.488 429.919C184.846 425.256 176.353 421.031 172.823 419.43C172.215 419.154 171.507 419.336 171.104 419.872L170.346 420.877C169.641 421.701 168.627 422.079 167.615 421.918L159.433 420.429C159.321 420.408 159.209 420.398 159.097 420.398Z" fill="white"/>
<path d="M183.312 430.331H183.31L158.82 430.239C158.556 430.239 158.343 430.024 158.344 429.759C158.345 429.496 158.559 429.283 158.822 429.283H158.824L183.314 429.374C183.578 429.375 183.791 429.59 183.79 429.854C183.789 430.118 183.575 430.331 183.312 430.331Z" fill="white"/>
<path d="M172.294 426.415C172.205 426.415 172.115 426.391 172.034 426.338C171.813 426.194 171.75 425.898 171.894 425.677L174.261 422.035C174.405 421.814 174.7 421.751 174.922 421.895C175.144 422.039 175.207 422.335 175.063 422.556L172.696 426.198C172.604 426.339 172.451 426.415 172.294 426.415Z" fill="white"/>
<path d="M176.118 427.326C176.024 427.326 175.929 427.298 175.845 427.24C175.629 427.089 175.576 426.791 175.727 426.574L177.821 423.57C177.971 423.354 178.27 423.301 178.486 423.451C178.703 423.602 178.756 423.9 178.605 424.117L176.511 427.121C176.418 427.254 176.27 427.326 176.118 427.326Z" fill="white"/>
<path d="M110.032 396.01C109.685 396.01 109.344 395.919 109.046 395.742C106.051 393.966 103.861 389.711 104.104 389.063C109.483 374.668 114.925 367.926 122.457 358.594C124.033 356.64 125.664 354.62 127.407 352.388C129.978 349.094 130.706 344.7 131.053 341.24C132.012 331.674 134.001 314.087 136.538 303.784C141.143 285.083 151.758 276.859 159.66 277.142C164.978 277.328 168.801 281.185 169.887 287.459C171.604 297.379 168.98 302.038 168.635 302.596C167.745 305.034 152.123 347.619 144.921 355.121C142.651 357.485 139.698 362.065 136.278 367.369C128.932 378.762 119.79 392.941 110.658 395.91C110.453 395.977 110.241 396.01 110.032 396.01ZM105.041 389.288C105.234 389.924 106.91 393.364 109.534 394.919C109.776 395.063 110.078 395.092 110.363 395C119.171 392.137 128.211 378.116 135.474 366.851C138.921 361.505 141.897 356.889 144.231 354.458C151.349 347.043 167.591 302.667 167.755 302.22C167.767 302.185 167.784 302.151 167.805 302.12C167.833 302.077 170.668 297.581 168.944 287.622C167.941 281.827 164.458 278.267 159.627 278.098C152.087 277.836 141.945 285.831 137.467 304.013C134.944 314.259 132.962 331.794 132.005 341.335C131.645 344.924 130.883 349.489 128.161 352.976C126.413 355.215 124.78 357.238 123.201 359.194C115.745 368.433 110.353 375.114 105.041 389.288Z" fill="white"/>
<path d="M167.56 415.078C167.545 415.078 167.531 415.077 167.516 415.077L160.639 414.936C159.663 414.916 158.824 414.207 158.642 413.25C157.286 406.093 153.441 381.464 160.935 365.031C162.618 361.341 161.19 353.352 159.678 344.895C158.168 336.443 156.606 327.705 157.839 321.839C159.763 312.69 165.116 285.933 165.17 285.663C165.217 285.429 165.428 285.267 165.669 285.28L182.373 286.334C182.573 286.347 182.744 286.482 182.801 286.674C182.848 286.828 187.416 302.26 186.44 318.266C186.439 318.281 186.438 318.296 186.436 318.311C186.4 318.542 182.81 341.512 180.328 353.921C179.326 358.934 178.763 364.639 178.167 370.679C177.271 379.758 176.256 390.049 173.485 400.935C172.393 405.225 170.349 411.277 169.521 413.68C169.232 414.52 168.447 415.078 167.56 415.078ZM166.026 286.261C165.34 289.685 160.569 313.505 158.775 322.036C157.581 327.719 159.126 336.365 160.62 344.726C162.159 353.335 163.612 361.467 161.805 365.428C154.238 382.021 158.626 408.027 159.582 413.072C159.68 413.587 160.132 413.968 160.659 413.979L167.536 414.121C167.543 414.121 167.552 414.121 167.56 414.121C168.038 414.121 168.461 413.821 168.617 413.368C169.441 410.976 171.475 404.954 172.558 400.698C175.312 389.884 176.323 379.631 177.215 370.585C177.814 364.521 178.379 358.792 179.391 353.734C181.835 341.514 185.356 319.022 185.487 318.186C186.37 303.621 182.618 289.544 181.977 287.268L166.026 286.261Z" fill="white"/>
<path d="M224.934 242.648C224.859 242.648 224.784 242.646 224.708 242.641C223.738 242.581 221.773 242.443 219.514 242.203C214.497 241.669 207.668 239.747 203.277 237.634C203.152 237.574 203.06 237.463 203.023 237.33C202.986 237.197 203.009 237.055 203.085 236.939L210.886 225.105C211.023 224.898 211.296 224.83 211.513 224.947C212.46 225.459 214.137 226.544 216.498 228.172C220.02 230.6 224.756 230.598 228.282 228.164C229.888 227.056 231.26 226.143 232.359 225.451C234.298 224.229 236.023 223.291 237.546 222.463C240.621 220.791 242.843 219.583 244.207 217.431C245.061 216.085 246.254 214.809 247.408 213.575C248.936 211.94 250.38 210.396 250.73 209.005C250.905 208.31 251.409 207.817 252.079 207.685C252.839 207.536 253.647 207.873 254.139 208.542C254.442 208.954 255.003 210.053 254.234 211.872C255.108 212.054 256.524 212.529 256.724 213.712C256.842 214.41 256.56 215.101 255.887 215.767C255.124 216.52 254.721 217.612 254.781 218.764C254.863 220.365 254.179 221.964 252.903 223.152C250.76 225.148 248.62 225.081 247.469 225.043C247.302 225.037 247.155 225.033 247.036 225.036C246.441 225.194 243.395 228.215 240.947 230.643C238.619 232.951 236.213 235.338 234.389 236.881C230.223 240.407 227.58 241.82 226.376 242.348C225.924 242.546 225.43 242.648 224.934 242.648ZM204.187 237.005C208.498 238.984 214.879 240.748 219.615 241.252C221.856 241.49 223.806 241.626 224.768 241.687C225.193 241.713 225.606 241.641 225.992 241.472C227.148 240.965 229.698 239.599 233.771 236.151C235.566 234.632 237.959 232.259 240.273 229.964C244.558 225.714 246.249 224.106 247.004 224.08C247.141 224.076 247.307 224.08 247.5 224.087C248.583 224.122 250.396 224.179 252.251 222.453C253.32 221.458 253.893 220.131 253.825 218.814C253.751 217.389 254.258 216.031 255.214 215.087C255.653 214.653 255.844 214.244 255.781 213.871C255.66 213.155 254.177 212.787 253.478 212.721C253.319 212.706 253.177 212.611 253.101 212.47C253.026 212.328 253.026 212.158 253.102 212.017C253.751 210.821 253.847 209.76 253.368 209.108C253.099 208.742 252.655 208.548 252.262 208.624C252.046 208.667 251.766 208.808 251.658 209.239C251.247 210.869 249.721 212.5 248.106 214.228C246.982 215.43 245.82 216.673 245.015 217.943C243.517 220.305 241.204 221.562 238.003 223.303C236.493 224.124 234.782 225.054 232.869 226.26C231.781 226.945 230.42 227.851 228.825 228.951C224.974 231.609 219.802 231.612 215.955 228.96C213.916 227.554 212.401 226.562 211.44 226.003L204.187 237.005Z" fill="white"/>
<path d="M251.562 215.432C251.44 215.432 251.318 215.385 251.225 215.292C251.038 215.106 251.037 214.803 251.223 214.616C252.201 213.635 253.168 211.877 253.177 211.86C253.304 211.628 253.594 211.542 253.826 211.67C254.058 211.796 254.143 212.087 254.016 212.318C253.974 212.395 252.975 214.213 251.901 215.291C251.808 215.385 251.685 215.432 251.562 215.432Z" fill="white"/>
<path d="M193.424 220.649C193.363 220.649 193.302 220.637 193.243 220.614L185.847 217.606C185.69 217.542 185.579 217.4 185.554 217.233C185.529 217.066 185.594 216.898 185.725 216.791L200.029 205.168C200.782 204.556 201.114 203.553 200.875 202.612L199.441 196.983C199.253 196.245 199.426 195.451 199.904 194.858L202.498 191.64C202.824 191.236 203.217 190.899 203.667 190.641C204.424 190.205 205.359 190.101 206.232 190.356L206.824 190.528C206.876 190.505 206.942 190.474 207.017 190.44C207.849 190.059 208.789 189.646 209.514 189.682C210.249 189.709 210.861 189.983 211.237 190.454C211.6 190.908 211.725 191.503 211.599 192.174C211.442 193.005 210.459 194.661 209.568 195.867C209.184 196.385 209.144 197.99 209.106 199.542C209.037 202.275 208.952 205.676 207.166 207.297C204.493 209.721 193.87 220.401 193.763 220.508C193.671 220.6 193.549 220.649 193.424 220.649ZM186.956 217.024L193.309 219.608C194.867 218.044 204.051 208.831 206.523 206.589C208.007 205.243 208.086 202.069 208.149 199.518C208.198 197.586 208.236 196.059 208.798 195.298C209.715 194.057 210.55 192.577 210.659 191.997C210.71 191.726 210.722 191.341 210.49 191.051C210.29 190.801 209.931 190.655 209.479 190.638C208.934 190.619 207.906 191.085 207.415 191.309C207.115 191.447 207.014 191.493 206.899 191.506C206.834 191.514 206.77 191.508 206.709 191.491L205.965 191.274C205.34 191.091 204.676 191.163 204.144 191.47C203.797 191.669 203.494 191.928 203.243 192.24L200.649 195.459C200.359 195.818 200.254 196.3 200.368 196.747L201.802 202.376C202.133 203.677 201.674 205.064 200.633 205.91L186.956 217.024Z" fill="white"/>
<path d="M203.794 195.774C203.717 195.774 203.638 195.755 203.565 195.715C203.333 195.587 203.249 195.297 203.375 195.066C203.496 194.845 206.351 189.708 209.529 189.708C209.556 189.708 209.583 189.708 209.61 189.708C209.874 189.716 210.082 189.936 210.075 190.2C210.067 190.464 209.847 190.667 209.584 190.665C209.565 190.664 209.547 190.664 209.528 190.664C207.361 190.664 204.962 194.165 204.214 195.526C204.127 195.684 203.963 195.774 203.794 195.774Z" fill="white"/>
<path d="M168.309 214.09C168.309 214.09 180.946 213.593 188.885 215.393C194.152 216.588 208.156 220.211 212.85 224.294C212.85 224.294 215.096 236.949 204.481 246.747L195.176 244.614C195.176 244.614 198.043 299.34 189.698 317.293C189.182 318.404 181.303 320.747 181.303 320.747C181.303 320.747 180.429 302.215 179.024 302.634C177.619 303.053 171.908 323.163 170.21 323.469C152.027 326.741 130.709 323.881 130.366 323.194C130.19 322.843 129.914 307.942 139.242 290.159C145.204 278.795 153.345 268.511 154.646 261.736C156.724 250.926 150.926 236.182 152.649 223.903C153.015 221.291 152.912 214.445 168.309 214.09Z" fill="white"/>
<path d="M187.279 191.447C187.279 191.447 192.874 190.182 189.506 180.73C186.115 171.215 175.416 174.602 171.324 174.281C167.232 173.961 158.937 167.72 155.991 166.244C153.046 164.769 143.36 157.967 130.406 170.128C130.406 170.128 128.395 173.281 117.432 173.228C107.894 173.182 91.6229 179.805 98.2417 191.786C100.151 195.242 103.265 197.777 106.896 199.01C107.554 199.233 108.272 199.444 109.048 199.628C111.292 200.161 113.136 201.834 113.887 204.11C116.33 211.524 124.351 225.593 148.086 209.097C149.876 207.853 152.104 207.548 154.128 208.241C156.616 209.093 159.568 212.884 170.987 210.352C178.322 208.725 179.982 200.573 181.625 196.798C183.553 192.369 187.279 191.447 187.279 191.447Z" fill="white"/>
<path d="M173.001 218.93H172.943C169.365 218.902 167.253 215.888 167.024 215.544C166.922 215.392 166.917 215.195 167.009 215.037C167.602 214.025 168.167 212.848 168.688 211.54C168.997 210.764 169.57 208.941 169.576 208.923C169.613 208.803 169.696 208.703 169.807 208.644C172.369 207.278 174.582 205.43 176.385 203.153C177.984 201.132 179.041 198.678 179.442 196.055L179.56 195.282C179.788 193.771 179.986 192.466 180.898 191.824C181.422 191.456 182.105 191.361 182.988 191.534C183.631 191.66 184.332 191.202 185.011 190.76C185.944 190.153 187 189.463 188.054 190.282C188.325 190.493 188.645 191.05 189.178 192.07L189.281 192.268C191.232 195.954 191.367 205.531 188.239 207.569C186.7 208.573 185.066 208.177 183.625 207.828C182.06 207.449 181.143 207.28 180.505 208.216C178.912 210.55 178.743 213.806 178.546 217.576C178.538 217.729 178.457 217.869 178.328 217.953C177.586 218.433 174.598 218.93 173.001 218.93ZM167.99 215.251C168.541 215.978 170.282 217.953 172.95 217.974C174.455 217.976 176.813 217.549 177.606 217.245C177.804 213.451 178.013 210.171 179.714 207.677C180.757 206.149 182.33 206.531 183.85 206.898C185.164 207.217 186.522 207.546 187.717 206.768C190.216 205.14 190.324 196.282 188.436 192.715L188.33 192.513C188.16 192.187 187.643 191.197 187.461 191.033C187.001 190.676 186.52 190.919 185.533 191.562C184.733 192.083 183.827 192.672 182.803 192.472C182.191 192.352 181.747 192.395 181.448 192.606C180.87 193.013 180.701 194.131 180.505 195.426L180.466 195.687L180.387 196.2C179.961 198.986 178.837 201.596 177.135 203.746C175.291 206.076 173.036 207.976 170.43 209.395C170.273 209.888 169.842 211.227 169.577 211.894C169.083 213.133 168.55 214.261 167.99 215.251Z" fill="white"/>
<path d="M184.302 201.031C184.284 201.031 184.265 201.03 184.246 201.027C182.003 200.762 180.692 198.337 180.387 196.051C180.115 194.013 180.64 192.414 181.724 191.978C184.209 190.977 186.019 194.749 186.095 194.91C186.207 195.148 186.105 195.433 185.866 195.546C185.627 195.658 185.342 195.556 185.23 195.317C185.215 195.286 183.704 192.208 182.082 192.865C181.447 193.121 181.133 194.407 181.335 195.925C181.591 197.844 182.625 199.873 184.358 200.077C184.62 200.108 184.808 200.346 184.777 200.608C184.748 200.852 184.541 201.031 184.302 201.031Z" fill="white"/>
<path d="M402.31 178.619H343.718C341.359 178.619 339.447 180.531 339.447 182.889C339.447 185.248 341.359 187.16 343.718 187.16H402.31C404.669 187.16 406.581 185.248 406.581 182.889C406.581 180.531 404.669 178.619 402.31 178.619Z" fill="white"/>
<path d="M327.288 186.954C329.533 186.954 331.353 185.134 331.353 182.889C331.353 180.644 329.533 178.824 327.288 178.824C325.043 178.824 323.223 180.644 323.223 182.889C323.223 185.134 325.043 186.954 327.288 186.954Z" fill="white"/>
<path d="M402.31 161.835H343.718C341.359 161.835 339.447 163.747 339.447 166.105C339.447 168.464 341.359 170.376 343.718 170.376H402.31C404.669 170.376 406.581 168.464 406.581 166.105C406.581 163.747 404.669 161.835 402.31 161.835Z" fill="white"/>
<path d="M328.843 169.861C330.918 169.002 331.903 166.624 331.043 164.55C330.184 162.476 327.806 161.491 325.732 162.35C323.658 163.209 322.673 165.587 323.532 167.661C324.391 169.735 326.769 170.72 328.843 169.861Z" fill="white"/>
<path d="M318.877 166.584H299.896C299.632 166.584 299.418 166.37 299.418 166.106C299.418 165.841 299.632 165.627 299.896 165.627H318.877C319.141 165.627 319.355 165.841 319.355 166.106C319.355 166.37 319.141 166.584 318.877 166.584Z" fill="white"/>
<path d="M318.877 183.367H299.896C299.632 183.367 299.418 183.154 299.418 182.889C299.418 182.625 299.632 182.411 299.896 182.411H318.877C319.141 182.411 319.355 182.625 319.355 182.889C319.355 183.154 319.141 183.367 318.877 183.367Z" fill="white"/>
<path d="M386.774 346.405C386.637 346.405 386.502 346.347 386.408 346.235C386.237 346.033 386.263 345.731 386.465 345.561C418.399 318.606 429.581 284.67 433.338 260.949C437.411 235.24 433.886 215.676 433.85 215.482C433.802 215.222 433.974 214.972 434.233 214.924C434.493 214.874 434.742 215.047 434.791 215.307C434.827 215.504 438.381 235.229 434.283 261.098C431.877 276.294 427.341 290.612 420.802 303.654C412.627 319.96 401.282 334.306 387.082 346.292C386.992 346.368 386.882 346.405 386.774 346.405Z" fill="white"/>
<path d="M411.281 295.852C411.207 295.852 411.132 295.835 411.061 295.799C410.827 295.677 410.735 295.389 410.856 295.154C431.094 255.968 424.045 213.47 423.972 213.045C423.927 212.785 424.101 212.538 424.361 212.493C424.621 212.447 424.869 212.622 424.914 212.882C424.988 213.31 432.096 256.114 411.706 295.593C411.621 295.758 411.454 295.852 411.281 295.852Z" fill="white"/>
<path d="M102.895 377.733C102.762 377.733 102.63 377.677 102.536 377.57C81.6516 353.73 72.2197 329.552 67.9851 313.466C63.393 296.024 63.7498 284.046 63.754 283.927C63.7634 283.663 63.9871 283.444 64.2486 283.466C64.5125 283.475 64.7192 283.696 64.7101 283.96C64.7059 284.078 64.3565 295.946 68.9203 313.262C73.1311 329.238 82.5058 353.254 103.255 376.939C103.429 377.138 103.409 377.44 103.21 377.614C103.12 377.693 103.007 377.733 102.895 377.733Z" fill="white"/>
<path d="M84.11 327.927C83.9356 327.927 83.7677 327.832 83.6832 327.666C66.5506 293.97 71.0467 261.106 71.0941 260.778C71.1322 260.517 71.3736 260.33 71.6359 260.374C71.8972 260.411 72.0784 260.654 72.0408 260.915C71.9939 261.241 67.5459 293.817 84.536 327.232C84.6555 327.468 84.5616 327.755 84.3263 327.876C84.2569 327.911 84.1829 327.927 84.11 327.927Z" fill="white"/>
<path d="M146.859 95.9361C148.636 94.1593 148.636 91.2785 146.859 89.5016C145.082 87.7248 142.201 87.7248 140.424 89.5016C138.647 91.2785 138.647 94.1593 140.424 95.9361C142.201 97.713 145.082 97.713 146.859 95.9361Z" fill="white"/>
<path d="M92.4055 346.405C89.5627 346.405 87.25 344.092 87.25 341.25C87.25 338.407 89.5627 336.094 92.4055 336.094C95.2481 336.094 97.5609 338.407 97.5609 341.25C97.5609 344.092 95.2481 346.405 92.4055 346.405ZM92.4055 337.05C90.0902 337.05 88.2065 338.934 88.2065 341.25C88.2065 343.565 90.0902 345.449 92.4055 345.449C94.7208 345.449 96.6044 343.565 96.6044 341.25C96.6044 338.934 94.7209 337.05 92.4055 337.05Z" fill="white"/>
<path d="M359.125 88.5066C359 88.5066 358.877 88.4584 358.783 88.3627C358.598 88.174 358.601 87.8714 358.79 87.6864L361.511 85.0234C361.7 84.8385 362.002 84.8427 362.187 85.0309C362.371 85.2196 362.368 85.5222 362.179 85.7072L359.459 88.3702C359.366 88.4613 359.245 88.5066 359.125 88.5066Z" fill="white"/>
<path d="M365.462 82.303C365.338 82.303 365.214 82.2549 365.121 82.1592C364.936 81.9705 364.939 81.6678 365.128 81.4829L367.849 78.8199C368.037 78.6354 368.34 78.6392 368.525 78.8274C368.709 79.016 368.706 79.3187 368.517 79.5036L365.797 82.1666C365.704 82.2577 365.583 82.303 365.462 82.303Z" fill="white"/>
<path d="M368.086 88.6023C367.962 88.6023 367.838 88.5542 367.745 88.4584L365.082 85.738C364.897 85.5493 364.9 85.2467 365.089 85.0617C365.278 84.8772 365.581 84.881 365.765 85.0692L368.428 87.7896C368.613 87.9783 368.609 88.281 368.421 88.4659C368.328 88.557 368.207 88.6023 368.086 88.6023Z" fill="white"/>
<path d="M361.883 82.2651C361.759 82.2651 361.635 82.217 361.541 82.1213L358.878 79.4008C358.694 79.2121 358.697 78.9095 358.886 78.7246C359.075 78.5401 359.377 78.5438 359.562 78.732L362.225 81.4525C362.41 81.6412 362.406 81.9438 362.218 82.1287C362.125 82.2198 362.004 82.2651 361.883 82.2651Z" fill="white"/>
<path d="M387.639 111.929C387.07 111.929 386.493 111.826 385.936 111.607C384.776 111.152 383.869 110.271 383.38 109.127C382.882 107.963 382.876 106.669 383.362 105.483C384.354 103.06 387.12 101.857 389.527 102.803C390.685 103.257 391.593 104.138 392.082 105.281C392.58 106.446 392.587 107.74 392.101 108.927C391.338 110.788 389.528 111.929 387.639 111.929ZM386.285 110.717C388.208 111.471 390.42 110.506 391.215 108.565C391.603 107.616 391.599 106.584 391.203 105.658C390.815 104.751 390.096 104.053 389.177 103.693C387.253 102.939 385.042 103.904 384.247 105.845C383.859 106.793 383.863 107.824 384.259 108.751C384.647 109.658 385.366 110.356 386.285 110.717Z" fill="white"/>
<rect x="180" y="423" width="262" height="2" fill="white"/>
<rect x="115" y="423" width="41" height="2" fill="white"/>
<path d="M225.499 241.251V237.251L235.499 234.251L238.999 230.751L229.999 228.751L225.499 230.251L221.499 231.751L211.999 234.251L211.499 237.251L220.499 241.251H225.499Z" fill="#020109"/>
<path d="M199.621 206.419L198.039 207.943L196.574 212.279L200.969 211.81L204.134 208.587L206.536 206.419L205.599 203.489L207.474 196.692L210.052 192.414V190.598H208.704C207.982 191.281 206.536 192.778 206.536 193.293C206.536 193.809 204.387 196.672 203.313 198.04C202.981 200.247 202.27 204.708 202.083 204.896C201.895 205.083 200.363 205.99 199.621 206.419Z" fill="#020109"/>
<path d="M180.972 198.04L180.391 200.225L182.36 206.419L184.879 206.812L181.682 199.256L180.972 198.04Z" fill="#020109"/>
<path d="M269.949 259.208H213.43L210.431 264.497L268.449 265.76L269.949 259.208Z" fill="#020109"/>
<path d="M301.163 259.208L298.051 264.708L347.201 265.155L353.149 259.208H301.163Z" fill="#020109"/>
<path d="M209.916 275.021L209.654 276.544L267.68 276.594L267.363 275.021H209.916Z" fill="#020109"/>
</svg>
