<svg width="1440" height="560" viewBox="0 0 1440 560" fill="none" xmlns="http://www.w3.org/2000/svg">
<rect width="1440" height="331" transform="translate(0 101)" fill="url(#paint0_linear_409_3768)"/>
<g filter="url(#filter0_f_409_3768)">
<path fill-rule="evenodd" clip-rule="evenodd" d="M718.171 171.068C1057.36 171.217 1384.44 198.603 1481.76 245.951C1573.53 290.599 1368.19 333.195 1106.48 359.986C859.813 385.238 540.156 392.498 290.303 367.921C11.8759 340.534 -161.146 291.941 -59.7157 245.274C43.7411 197.676 375.538 170.918 718.171 171.068Z" fill="#0681CE"/>
<path fill-rule="evenodd" clip-rule="evenodd" d="M976.711 144.271C1049.43 127.745 1138.3 121.129 1211.75 137.261C1299 156.424 1367.88 189.458 1339.03 223.85C1308.85 259.822 1200.77 277.557 1092.84 279.017C973.158 280.636 832.874 270.965 798.57 231.162C766.125 193.516 881.956 165.806 976.711 144.271Z" fill="#0681CE"/>
<path d="M358.252 217.857C451.829 210.626 548.022 203.193 637.066 204.151C743.861 205.301 861.331 217.732 975.598 229.824C1140.16 247.238 1348.16 236.555 1458 217.857V431.5L-19.0869 414L-32.0869 215.489C64.2555 240.574 207.876 229.477 358.252 217.857Z" fill="url(#paint1_linear_409_3768)"/>
</g>
<defs>
<filter id="filter0_f_409_3768" x="-217" y="0" width="1849" height="559.5" filterUnits="userSpaceOnUse" color-interpolation-filters="sRGB">
<feFlood flood-opacity="0" result="BackgroundImageFix"/>
<feBlend mode="normal" in="SourceGraphic" in2="BackgroundImageFix" result="shape"/>
<feGaussianBlur stdDeviation="64" result="effect1_foregroundBlur_409_3768"/>
</filter>
<linearGradient id="paint0_linear_409_3768" x1="720" y1="0" x2="720" y2="331" gradientUnits="userSpaceOnUse">
<stop stop-color="#00276F" stop-opacity="0"/>
<stop offset="0.295" stop-color="#0B5DAA"/>
<stop offset="0.47" stop-color="#0681CE"/>
<stop offset="0.72" stop-color="white"/>
<stop offset="1" stop-color="white" stop-opacity="0"/>
</linearGradient>
<linearGradient id="paint1_linear_409_3768" x1="720" y1="466.068" x2="720" y2="194.497" gradientUnits="userSpaceOnUse">
<stop stop-color="white"/>
<stop offset="1" stop-color="white" stop-opacity="0.5"/>
</linearGradient>
</defs>
</svg>
