<svg width="75" height="18" viewBox="0 0 75 18" fill="none" xmlns="http://www.w3.org/2000/svg">
<path d="M7.86387 2.50977H2.40039V7.88335" stroke="#E41F1A" stroke-width="4" stroke-miterlimit="10"/>
<path d="M10.1973 2.50977H15.5306V7.88335" stroke="#E41F1A" stroke-width="4" stroke-miterlimit="10"/>
<path d="M7.86387 15.4908H2.40039V10.1172" stroke="#E41F1A" stroke-width="4" stroke-miterlimit="10"/>
<path d="M10.1973 15.4908H15.5306V10.1172" stroke="#E41F1A" stroke-width="4" stroke-miterlimit="10"/>
<path d="M19.9688 6.25195V4.76953H27.0996V6.25195H24.4336V13.5H22.6406V6.25195H19.9688ZM30.0527 9.70898V13.5H28.2949V4.76953H30.0176V8.58398H29.877C30.0488 8.03711 30.3086 7.61523 30.6562 7.31836C31.0078 7.01758 31.4609 6.86719 32.0156 6.86719C32.4688 6.86719 32.8633 6.9668 33.1992 7.16602C33.5391 7.36133 33.8027 7.64453 33.9902 8.01562C34.1777 8.38281 34.2715 8.82227 34.2715 9.33398V13.5H32.5078V9.63867C32.5078 9.23242 32.4023 8.91406 32.1914 8.68359C31.9844 8.45312 31.6953 8.33789 31.3242 8.33789C31.0781 8.33789 30.8574 8.39258 30.6621 8.50195C30.4707 8.60742 30.3203 8.76172 30.2109 8.96484C30.1055 9.16797 30.0527 9.41602 30.0527 9.70898ZM38.7305 13.6289C38.0625 13.6289 37.4863 13.4922 37.002 13.2188C36.5176 12.9453 36.1445 12.5566 35.8828 12.0527C35.625 11.5488 35.4961 10.9512 35.4961 10.2598C35.4961 9.58398 35.625 8.99219 35.8828 8.48438C36.1406 7.97656 36.5059 7.58008 36.9785 7.29492C37.4512 7.00977 38.0059 6.86719 38.6426 6.86719C39.0723 6.86719 39.4727 6.93555 39.8438 7.07227C40.2148 7.20898 40.541 7.41602 40.8223 7.69336C41.1035 7.9668 41.3223 8.31055 41.4785 8.72461C41.6387 9.13867 41.7188 9.62695 41.7188 10.1895V10.6816H36.2168V9.58008H40.8574L40.0371 9.87305C40.0371 9.5332 39.9844 9.23828 39.8789 8.98828C39.7773 8.73438 39.623 8.53906 39.416 8.40234C39.2129 8.26172 38.9609 8.19141 38.6602 8.19141C38.3555 8.19141 38.0957 8.26172 37.8809 8.40234C37.6699 8.54297 37.5098 8.73438 37.4004 8.97656C37.291 9.21484 37.2363 9.48828 37.2363 9.79688V10.5762C37.2363 10.9551 37.2988 11.2734 37.4238 11.5312C37.5527 11.7891 37.7305 11.9824 37.957 12.1113C38.1875 12.2402 38.4551 12.3047 38.7598 12.3047C38.9668 12.3047 39.1543 12.2754 39.3223 12.2168C39.4902 12.1582 39.6328 12.0723 39.75 11.959C39.8711 11.8418 39.9629 11.6992 40.0254 11.5312L41.6191 11.8301C41.5137 12.1895 41.3301 12.5059 41.0684 12.7793C40.8066 13.0488 40.4785 13.2578 40.084 13.4062C39.6934 13.5547 39.2422 13.6289 38.7305 13.6289ZM42.9609 13.5V4.76953H46.3652C47.0293 4.76953 47.5938 4.89648 48.0586 5.15039C48.5234 5.40039 48.877 5.74805 49.1191 6.19336C49.3652 6.63477 49.4883 7.14258 49.4883 7.7168C49.4883 8.29492 49.3633 8.80469 49.1133 9.24609C48.8672 9.68359 48.5078 10.0273 48.0352 10.2773C47.5664 10.5234 46.9961 10.6465 46.3242 10.6465H44.1328V9.20508H46.0371C46.4043 9.20508 46.7051 9.14258 46.9395 9.01758C47.1777 8.88867 47.3535 8.71289 47.4668 8.49023C47.584 8.26758 47.6426 8.00977 47.6426 7.7168C47.6426 7.42383 47.584 7.16797 47.4668 6.94922C47.3535 6.72656 47.1777 6.55469 46.9395 6.43359C46.7012 6.30859 46.3984 6.24609 46.0312 6.24609H44.748V13.5H42.9609ZM52.459 4.76953V13.5H50.7012V4.76953H52.459ZM55.7871 13.6289C55.373 13.6289 55 13.5566 54.668 13.4121C54.3398 13.2637 54.0801 13.0449 53.8887 12.7559C53.7012 12.4629 53.6074 12.0996 53.6074 11.666C53.6074 11.3027 53.6738 10.998 53.8066 10.752C53.9434 10.5059 54.127 10.3086 54.3574 10.1602C54.5918 10.0117 54.8555 9.89844 55.1484 9.82031C55.4453 9.74219 55.7559 9.6875 56.0801 9.65625C56.459 9.61719 56.7637 9.58203 56.9941 9.55078C57.2285 9.51562 57.3984 9.46289 57.5039 9.39258C57.6133 9.31836 57.668 9.21094 57.668 9.07031V9.04102C57.668 8.85352 57.6289 8.69531 57.5508 8.56641C57.4727 8.4375 57.3555 8.33984 57.1992 8.27344C57.0469 8.20312 56.8613 8.16797 56.6426 8.16797C56.416 8.16797 56.2188 8.20312 56.0508 8.27344C55.8828 8.33984 55.7461 8.42969 55.6406 8.54297C55.5352 8.65625 55.457 8.7832 55.4062 8.92383L53.7949 8.66016C53.9082 8.27734 54.0957 7.95312 54.3574 7.6875C54.6191 7.42188 54.9434 7.21875 55.3301 7.07812C55.7207 6.9375 56.1602 6.86719 56.6484 6.86719C57 6.86719 57.3418 6.91016 57.6738 6.99609C58.0059 7.07812 58.3027 7.20703 58.5645 7.38281C58.8301 7.55859 59.0391 7.78906 59.1914 8.07422C59.3477 8.35547 59.4258 8.69336 59.4258 9.08789V13.5H57.7617V12.5918H57.7031C57.5977 12.7949 57.457 12.9746 57.2812 13.1309C57.1055 13.2832 56.8926 13.4043 56.6426 13.4941C56.3965 13.584 56.1113 13.6289 55.7871 13.6289ZM56.2852 12.3926C56.5625 12.3926 56.8047 12.3379 57.0117 12.2285C57.2227 12.1191 57.3867 11.9707 57.5039 11.7832C57.6211 11.5957 57.6797 11.3867 57.6797 11.1562V10.4473C57.6289 10.4863 57.5508 10.5215 57.4453 10.5527C57.3398 10.584 57.2227 10.6113 57.0938 10.6348C56.9648 10.6582 56.8379 10.6797 56.7129 10.6992C56.5879 10.7188 56.4766 10.7344 56.3789 10.7461C56.1641 10.7773 55.9746 10.8281 55.8105 10.8984C55.6465 10.9688 55.5195 11.0625 55.4297 11.1797C55.3398 11.293 55.2949 11.4395 55.2949 11.6191C55.2949 11.7871 55.3379 11.9297 55.4238 12.0469C55.5098 12.1602 55.627 12.2461 55.7754 12.3047C55.9238 12.3633 56.0938 12.3926 56.2852 12.3926ZM63.8613 13.6289C63.2012 13.6289 62.6309 13.4883 62.1504 13.207C61.6738 12.9219 61.3047 12.5273 61.043 12.0234C60.7852 11.5156 60.6562 10.9258 60.6562 10.2539C60.6562 9.57422 60.7852 8.98242 61.043 8.47852C61.3047 7.9707 61.6738 7.57617 62.1504 7.29492C62.6309 7.00977 63.2012 6.86719 63.8613 6.86719C64.248 6.86719 64.6055 6.91797 64.9336 7.01953C65.2617 7.12109 65.5527 7.26562 65.8066 7.45312C66.0605 7.64062 66.2695 7.86914 66.4336 8.13867C66.5977 8.4082 66.7109 8.71094 66.7734 9.04688L65.1387 9.35156C65.1035 9.17969 65.0488 9.02734 64.9746 8.89453C64.9004 8.75781 64.8105 8.64258 64.7051 8.54883C64.5996 8.45117 64.4766 8.37695 64.3359 8.32617C64.1992 8.27539 64.0469 8.25 63.8789 8.25C63.5664 8.25 63.3027 8.33398 63.0879 8.50195C62.877 8.66992 62.7168 8.9043 62.6074 9.20508C62.502 9.50586 62.4492 9.85352 62.4492 10.248C62.4492 10.6348 62.502 10.9785 62.6074 11.2793C62.7168 11.5801 62.877 11.8164 63.0879 11.9883C63.3027 12.1602 63.5664 12.2461 63.8789 12.2461C64.0469 12.2461 64.2012 12.2207 64.3418 12.1699C64.4824 12.1152 64.6074 12.0391 64.7168 11.9414C64.8262 11.8398 64.918 11.7188 64.9922 11.5781C65.0664 11.4375 65.1191 11.2793 65.1504 11.1035L66.7852 11.4023C66.7227 11.75 66.6094 12.0605 66.4453 12.334C66.2812 12.6035 66.0723 12.8359 65.8184 13.0312C65.5645 13.2266 65.2715 13.375 64.9395 13.4766C64.6113 13.5781 64.252 13.6289 63.8613 13.6289ZM70.957 13.6289C70.2891 13.6289 69.7129 13.4922 69.2285 13.2188C68.7441 12.9453 68.3711 12.5566 68.1094 12.0527C67.8516 11.5488 67.7227 10.9512 67.7227 10.2598C67.7227 9.58398 67.8516 8.99219 68.1094 8.48438C68.3672 7.97656 68.7324 7.58008 69.2051 7.29492C69.6777 7.00977 70.2324 6.86719 70.8691 6.86719C71.2988 6.86719 71.6992 6.93555 72.0703 7.07227C72.4414 7.20898 72.7676 7.41602 73.0488 7.69336C73.3301 7.9668 73.5488 8.31055 73.7051 8.72461C73.8652 9.13867 73.9453 9.62695 73.9453 10.1895V10.6816H68.4434V9.58008H73.084L72.2637 9.87305C72.2637 9.5332 72.2109 9.23828 72.1055 8.98828C72.0039 8.73438 71.8496 8.53906 71.6426 8.40234C71.4395 8.26172 71.1875 8.19141 70.8867 8.19141C70.582 8.19141 70.3223 8.26172 70.1074 8.40234C69.8965 8.54297 69.7363 8.73438 69.627 8.97656C69.5176 9.21484 69.4629 9.48828 69.4629 9.79688V10.5762C69.4629 10.9551 69.5254 11.2734 69.6504 11.5312C69.7793 11.7891 69.957 11.9824 70.1836 12.1113C70.4141 12.2402 70.6816 12.3047 70.9863 12.3047C71.1934 12.3047 71.3809 12.2754 71.5488 12.2168C71.7168 12.1582 71.8594 12.0723 71.9766 11.959C72.0977 11.8418 72.1895 11.6992 72.252 11.5312L73.8457 11.8301C73.7402 12.1895 73.5566 12.5059 73.2949 12.7793C73.0332 13.0488 72.7051 13.2578 72.3105 13.4062C71.9199 13.5547 71.4688 13.6289 70.957 13.6289Z" fill="white"/>
</svg>
