<svg width="65" height="43" viewBox="0 0 65 43" fill="none" xmlns="http://www.w3.org/2000/svg">
<g style="mix-blend-mode:difference">
<path d="M63.75 0.75V20.75H42.25V42.2344C39.7811 42.1451 37.3457 41.6178 35.0596 40.6709C32.5421 39.6281 30.254 38.0997 28.3271 36.1729C26.5208 34.3665 25.0645 32.2429 24.0303 29.9102L23.8291 29.4404C22.7864 26.923 22.25 24.2248 22.25 21.5V20.75H0.75V0.75H63.75Z" stroke="white" stroke-width="1.5"/>
<path d="M42.25 20.75L22.2656 20.75C22.3549 18.2811 22.8822 15.8457 23.8291 13.5596C24.8719 11.0421 26.4003 8.75396 28.3271 6.82715C30.1335 5.02075 32.2571 3.56447 34.5898 2.53027L35.0596 2.3291C37.3457 1.38219 39.7811 0.853944 42.25 0.764648L42.25 20.75Z" stroke="white" stroke-width="1.5"/>
</g>
</svg>
